Coordinates
version=1
nRows=21
nColumns=33
inDegrees=yes

Units are S.I. units (second, meters, Newtons, ...)
Angles are in degrees.

endheader
time	ground_thorax_rot_x	ground_thorax_rot_y	ground_thorax_rot_z	ground_thorax_tx	ground_thorax_ty	ground_thorax_tz	clav_prot_r	clav_elev_r	scapula_abduction_r	scapula_elevation_r	scapula_upward_rot_r	scapula_winging_r	shoulder_elv_r	plane_of_elev_r	axial_rot_r	elbow_flexion_r	pro_sup_r	wrist_flex_r	wrist_dev_r	clav_prot_l	clav_elev_l	scapula_abduction_l	scapula_elevation_l	scapula_upward_rot_l	scapula_winging_l	shoulder_elv_l	plane_of_elev_l	axial_rot_l	elbow_flexion_l	pro_sup_l	wrist_flex_l	wrist_dev_l
     11.35000000	     90.00000000	    -90.00000000	    -90.00000000	     12.56578891	    763.64667725	    -31.80918143	    -45.00000000	      2.71127912	    -42.18815236	     18.00742451	    -45.00000000	  -2631.58954799	  -1693.73600408	     32.79936606	    -35.46138345	   1080.51658725	    162.76413351	     11.05530936	     13.49337704	     18.47540656	     45.00000000	    -45.00000000	    -45.00000000	      3.90285131	  -4284.89289669	  -2574.04200013	    138.87005102	   -179.99999979	   1068.55109674	    420.78154312	      5.98359520	     -8.30471848
     11.36000000	     90.00000000	    -90.00000000	    -90.00000000	     10.24362473	    763.83528800	    -31.88049873	    -45.00000000	      2.56495315	    -41.96414333	     17.92047004	    -45.00000000	  -2631.54852796	  -1693.73869800	     32.87053479	    -35.09699658	   1080.67387653	    164.08924548	     11.25812250	     13.74695107	     18.24678014	     45.00000000	    -45.00000000	    -45.00000000	      4.01709384	  -4285.02511153	  -2573.93707618	    138.80217717	   -179.99999979	   1068.62717134	    421.18137295	      5.92349788	     -8.23611798
     11.37000000	     90.00000000	    -90.00000000	    -90.00000000	      7.86248391	    764.02462208	    -31.97719475	    -45.00000000	      2.50524685	    -41.78031692	     17.80629943	    -45.00000000	  -2631.46763331	  -1693.54589330	     32.91824378	    -34.75996172	   1080.62163398	    165.22373441	     11.35268194	     13.42324712	     18.01255777	     45.00000000	    -45.00000000	    -45.00000000	      4.13367904	  -4285.13775595	  -2573.79462606	    138.70905486	   -179.99999979	   1068.67455563	    421.64889151	      5.92209890	     -8.29801158
     11.38000000	     90.00000000	    -90.00000000	    -90.00000000	      5.42251217	    764.22185663	    -32.08796857	    -45.00000000	      2.40485774	    -41.56957491	     17.78486829	    -45.00000000	  -2631.37530706	  -1693.54593577	     32.98362334	    -34.42575230	   1080.70327246	    166.12489085	     11.54371643	     13.69298008	     17.76423305	     45.00000000	    -45.00000000	    -45.00000000	      4.21281842	  -4285.22048957	  -2573.61813742	    138.57694505	   -179.99999979	   1068.74205597	    422.20021864	      5.87932908	     -8.24162287
     11.39000000	     90.00000000	    -90.00000000	    -90.00000000	      2.92808221	    764.43101252	    -32.20579241	    -45.00000000	      2.29798551	    -41.37850131	     17.68429146	    -45.00000000	  -2631.34235843	  -1693.37429616	     33.05691919	    -34.00107374	   1080.69402407	    166.89010567	     11.54997024	     13.45029667	     17.53137798	     45.00000000	    -45.00000000	    -45.00000000	      4.37184835	  -4285.37086007	  -2573.52195057	    138.53701144	   -179.99999979	   1068.84483523	    422.79764219	      5.85979000	     -8.30361663
     11.40000000	     90.00000000	    -90.00000000	    -90.00000000	      0.37973883	    764.65617344	    -32.32855900	    -45.00000000	      2.24972997	    -41.16808167	     17.63517351	    -45.00000000	  -2631.22720059	  -1693.31686488	     33.07571019	    -33.69568858	   1080.75472111	    167.48205129	     11.71377831	     13.68740595	     17.26491069	     45.00000000	    -45.00000000	    -45.00000000	      4.42729647	  -4285.41127973	  -2573.28782755	    138.33678028	   -179.99999979	   1068.90909536	    423.47238285	      5.84400498	     -8.25111337
     11.41000000	     90.00000000	    -90.00000000	    -90.00000000	     -2.21277207	    764.90001225	    -32.45537590	    -45.00000000	      2.12929263	    -40.95067699	     17.50962281	    -45.00000000	  -2631.20633000	  -1693.14052023	     33.15178139	    -33.20005977	   1080.72711116	    168.01910319	     11.68012938	     13.49265732	     17.02466826	     45.00000000	    -45.00000000	    -45.00000000	      4.61501291	  -4285.63058862	  -2573.22543473	    138.34745836	   -179.99999979	   1069.02646770	    424.17460050	      5.82996561	     -8.29484293
     11.42000000	     90.00000000	    -90.00000000	    -90.00000000	     -4.84564912	    765.16569953	    -32.58665849	    -45.00000000	      2.07880455	    -40.72758131	     17.42015850	    -45.00000000	  -2631.11087709	  -1693.03763531	     33.14288962	    -32.82137858	   1080.84565354	    168.40887818	     11.82044549	     13.74766543	     16.75928093	     45.00000000	    -45.00000000	    -45.00000000	      4.69350186	  -4285.66725151	  -2573.00383028	    138.13725776	   -179.99999979	   1069.10469158	    424.92108951	      5.82277734	     -8.21467156
     11.43000000	     90.00000000	    -90.00000000	    -90.00000000	     -7.51186542	    765.45755624	    -32.72292215	    -45.00000000	      2.00647532	    -40.49971518	     17.20591362	    -45.00000000	  -2631.11161287	  -1692.79698502	     33.14891938	    -32.37242808	   1080.78679595	    168.79428754	     11.69263624	     13.45421136	     16.50280776	     45.00000000	    -45.00000000	    -45.00000000	      4.86301407	  -4285.94894808	  -2572.95434744	    138.13483409	   -179.99999979	   1069.16676406	    425.66559053	      5.85639771	     -8.29560698
     11.44000000	     90.00000000	    -90.00000000	    -90.00000000	    -10.21134295	    765.78144861	    -32.86577653	    -45.00000000	      1.88910794	    -40.27326487	     17.23313718	    -45.00000000	  -2630.95324362	  -1692.80832146	     33.20549451	    -31.98545364	   1080.87850811	    169.03876286	     11.98943556	     13.97061440	     16.22871099	     45.00000000	    -45.00000000	    -45.00000000	      4.89450754	  -4285.85016471	  -2572.67012612	    137.84747862	   -179.99999979	   1069.23017062	    426.46765041	      5.83153530	     -8.06824521
     11.45000000	     90.00000000	    -90.00000000	    -90.00000000	    -12.94252135	    766.14458756	    -33.01733856	    -45.00000000	      1.84401491	    -40.09351594	     17.14499434	    -45.00000000	  -2630.95391021	  -1692.54527911	     33.35518850	    -31.55846693	   1080.68493209	    169.34315574	     11.69784021	     13.22967732	     15.94960102	     45.00000000	    -45.00000000	    -45.00000000	      5.09534813	  -4286.24569149	  -2572.63714386	    137.99393773	   -179.99999979	   1069.42812237	    427.26852054	      5.89521373	     -8.35655409
     11.46000000	     90.00000000	    -90.00000000	    -90.00000000	    -15.69523881	    766.55304976	    -33.17881007	    -45.00000000	      1.87759365	    -39.94926786	     17.24400730	    -45.00000000	  -2630.66696804	  -1692.55035423	     33.43906402	    -31.21493505	   1080.65436410	    169.47754182	     12.03619673	     13.62691151	     15.62869346	     45.00000000	    -45.00000000	    -45.00000000	      5.07161454	  -4286.13667791	  -2572.32270620	    137.71124889	   -179.99999979	   1069.51692892	    428.29714556	      5.90969158	     -8.16153378
     11.47000000	     90.00000000	    -90.00000000	    -90.00000000	    -18.47750437	    767.01517133	    -33.35180452	    -45.00000000	      1.48752992	    -39.54214991	     17.05661517	    -45.00000000	  -2630.83960017	  -1692.50380907	     33.49750859	    -30.65968881	   1080.75201788	    169.70569914	     11.88553266	     13.71604449	     15.42574220	     45.00000000	    -45.00000000	    -45.00000000	      5.34479720	  -4286.35239472	  -2572.35221633	    137.69495072	   -179.99999979	   1069.67418247	    429.16188123	      5.86610896	     -8.12982071
     11.48000000	     90.00000000	    -90.00000000	    -90.00000000	    -21.27969966	    767.53476824	    -33.53577770	    -45.00000000	      1.58378858	    -39.47105528	     16.84505600	    -45.00000000	  -2630.63395168	  -1692.13369014	     33.43043796	    -30.38140327	   1080.78343534	    169.82534879	     12.05234988	     13.64458878	     15.10340249	     45.00000000	    -45.00000000	    -45.00000000	      5.36203100	  -4286.47056828	  -2572.11396049	    137.54769280	   -179.99999979	   1069.76008541	    430.01978027	      5.93586870	     -8.09845777
     11.49000000	     90.00000000	    -90.00000000	    -90.00000000	    -24.10512188	    768.11693056	    -33.73064885	    -45.00000000	      1.31849995	    -39.02365793	     16.75058460	    -45.00000000	  -2630.70696991	  -1692.23970663	     33.44198924	    -29.89555937	   1080.80139626	    170.03412578	     11.79737997	     13.85146846	     14.85475783	     45.00000000	    -45.00000000	    -45.00000000	      5.56366091	  -4286.65241841	  -2572.07413306	    137.45403581	   -179.99999979	   1069.80672747	    430.89219386	      5.92544623	     -8.09825594
     11.50000000	     90.00000000	    -90.00000000	    -90.00000000	    -26.94723408	    768.76347856	    -33.93553163	    -45.00000000	      1.32271758	    -39.05129688	     16.59634395	    -45.00000000	  -2630.52458525	  -1691.71437234	     33.61177197	    -29.73045878	   1080.65158587	    170.05205839	     12.28815453	     13.56897064	     14.53511325	     45.00000000	    -45.00000000	    -45.00000000	      5.53800779	  -4286.74805440	  -2571.80358599	    137.34724107	   -179.99999979	   1069.94187623	    431.76551958	      6.01360068	     -8.01392152
     11.51000000	     90.00000000	    -90.00000000	    -90.00000000	    -29.80389703	    769.47748878	    -34.14991596	    -45.00000000	      1.32532938	    -38.78309319	     16.74125369	    -45.00000000	  -2630.29674010	  -1691.89242307	     33.70573193	    -29.28252013	   1080.48976587	    170.19888351	     12.09263714	     13.76910730	     14.21218006	     45.00000000	    -45.00000000	    -45.00000000	      5.62132125	  -4286.82302450	  -2571.65579510	    137.21278309	   -179.99999979	   1070.07606451	    432.83175844	      6.01478568	     -8.02411997
     11.52000000	     90.00000000	    -90.00000000	    -90.00000000	    -32.67764308	    770.26345835	    -34.37369849	    -45.00000000	      0.83081959	    -38.33537155	     16.51640946	    -45.00000000	  -2630.50777969	  -1691.86935678	     33.68380349	    -28.93155784	   1080.72819848	    170.24759208	     12.07852158	     13.81815327	     13.98759075	     45.00000000	    -45.00000000	    -45.00000000	      5.84765980	  -4287.04323367	  -2571.65141737	    137.20150912	   -179.99999979	   1070.25645749	    433.70349063	      6.04567895	     -8.04302006
     11.53000000	     90.00000000	    -90.00000000	    -90.00000000	    -35.55440944	    771.12225579	    -34.60532881	    -45.00000000	      0.93647980	    -38.27927437	     16.26503333	    -45.00000000	  -2630.30928014	  -1691.42341304	     33.66682784	    -28.73525076	   1080.63549918	    170.31558935	     12.04722790	     13.85393134	     13.65851590	     45.00000000	    -45.00000000	    -45.00000000	      5.84339480	  -4287.14146120	  -2571.42452332	    137.03276774	   -179.99999979	   1070.28636135	    434.56066188	      6.08419173	     -7.94605608
     11.54000000	     90.00000000	    -90.00000000	    -90.00000000	    -38.43864483	    772.05776177	    -34.84400009	    -45.00000000	      0.60861487	    -37.76356048	     16.17168046	    -45.00000000	  -2630.35237004	  -1691.57911016	     33.58107266	    -28.32701967	   1080.77442557	    170.31685053	     12.13706437	     13.95085741	     13.39221512	     45.00000000	    -45.00000000	    -45.00000000	      6.00867230	  -4287.36926003	  -2571.39446975	    137.01173974	   -179.99999979	   1070.36268258	    435.38514302	      6.18702211	     -8.03516192
     11.55000000	     90.00000000	    -90.00000000	    -90.00000000	    -41.32415014	    773.07096720	    -35.08774353	    -45.00000000	      0.57587546	    -37.83893360	     15.99791142	    -45.00000000	  -2630.21358732	  -1691.05584970	     33.85929672	    -28.25955744	   1080.45582646	    170.30987406	     12.12941828	     13.89439351	     13.07557388	     45.00000000	    -45.00000000	    -45.00000000	      5.97362949	  -4287.40007454	  -2571.14981735	    136.80536336	   -179.99999979	   1070.45356348	    436.23212600	      6.17718249	     -7.82854066
